<svg width="37" height="39" viewBox="0 0 37 39" fill="none" xmlns="http://www.w3.org/2000/svg">
<path d="M18.5002 18.362C17.478 18.362 16.4977 17.9459 15.7749 17.2053C15.0521 16.4646 14.646 15.46 14.646 14.4126C14.646 13.3651 15.0521 12.3605 15.7749 11.6199C16.4977 10.8792 17.478 10.4631 18.5002 10.4631C19.5224 10.4631 20.5027 10.8792 21.2255 11.6199C21.9483 12.3605 22.3543 13.3651 22.3543 14.4126C22.3543 14.9312 22.2546 15.4448 22.0609 15.924C21.8673 16.4031 21.5834 16.8385 21.2255 17.2053C20.8676 17.572 20.4427 17.8629 19.9751 18.0614C19.5075 18.2599 19.0063 18.362 18.5002 18.362ZM18.5002 3.354C15.638 3.354 12.8931 4.5191 10.8693 6.59298C8.84547 8.66686 7.7085 11.4796 7.7085 14.4126C7.7085 22.7065 18.5002 34.9499 18.5002 34.9499C18.5002 34.9499 29.2918 22.7065 29.2918 14.4126C29.2918 11.4796 28.1549 8.66686 26.131 6.59298C24.1072 4.5191 21.3623 3.354 18.5002 3.354Z" fill="#190803"/>
</svg>
