<svg width="37" height="39" viewBox="0 0 37 39" fill="none" xmlns="http://www.w3.org/2000/svg">
<path d="M6.16683 32.3177C5.31891 32.3177 4.5933 32.0086 3.99 31.3904C3.38669 30.7722 3.08452 30.0281 3.0835 29.1581V10.2006C3.0835 9.33172 3.38566 8.58816 3.99 7.96993C4.59433 7.35171 5.31994 7.04207 6.16683 7.04102H30.8335C31.6814 7.04102 32.4075 7.35065 33.0119 7.96993C33.6162 8.58921 33.9179 9.33277 33.9168 10.2006V29.1581C33.9168 30.027 33.6152 30.7711 33.0119 31.3904C32.4086 32.0097 31.6824 32.3188 30.8335 32.3177H6.16683ZM18.5002 21.2592L30.8335 13.3602V10.2006L18.5002 18.0996L6.16683 10.2006V13.3602L18.5002 21.2592Z" fill="#190803"/>
</svg>
