<svg width="37" height="39" viewBox="0 0 37 39" fill="none" xmlns="http://www.w3.org/2000/svg">
<path d="M10.2058 17.1425C12.4258 21.6133 16.0025 25.2627 20.3654 27.5534L23.7571 24.0778C24.1733 23.6513 24.79 23.5091 25.3296 23.6987C27.0562 24.2832 28.9217 24.5992 30.8333 24.5992C31.6812 24.5992 32.375 25.3101 32.375 26.179V31.6924C32.375 32.5613 31.6812 33.2722 30.8333 33.2722C16.3571 33.2722 4.625 21.25 4.625 6.41573C4.625 5.54684 5.31875 4.83594 6.16667 4.83594H11.5625C12.4104 4.83594 13.1042 5.54684 13.1042 6.41573C13.1042 8.39047 13.4125 10.2862 13.9829 12.0556C14.1525 12.6085 14.0292 13.2246 13.5975 13.667L10.2058 17.1425Z" fill="#190803"/>
</svg>
