<svg width="36" height="38" viewBox="0 0 36 38" fill="none" xmlns="http://www.w3.org/2000/svg">
<path d="M18 38C13.4 38 9.392 36.3906 5.976 33.1719C2.56 29.9531 0.601333 25.9329 0.0999999 21.1111H4.2C4.66667 24.7704 6.20867 27.7963 8.826 30.1889C11.4433 32.5815 14.5013 33.7778 18 33.7778C21.9 33.7778 25.2087 32.3443 27.926 29.4774C30.6433 26.6106 32.0013 23.1181 32 19C32 14.8833 30.642 11.3916 27.926 8.52467C25.21 5.65778 21.9013 4.22363 18 4.22222C15.7 4.22222 13.55 4.78519 11.55 5.91111C9.55 7.03704 7.86667 8.58518 6.5 10.5556H12V14.7778H0V2.11111H4V7.07222C5.7 4.82037 7.77533 3.0787 10.226 1.84722C12.6767 0.615741 15.268 0 18 0C20.5 0 22.842 0.501741 25.026 1.50522C27.21 2.5087 29.11 3.86263 30.726 5.567C32.342 7.27418 33.6253 9.27974 34.576 11.5837C35.5267 13.8876 36.0013 16.3597 36 19C36 21.6389 35.5253 24.111 34.576 26.4163C33.6267 28.7217 32.3433 30.7272 30.726 32.433C29.1087 34.1388 27.2087 35.4934 25.026 36.4969C22.8433 37.5004 20.5013 38.0014 18 38ZM23.6 27.8667L16 19.8444V8.44444H20V18.1556L26.4 24.9111L23.6 27.8667Z" fill="#190803"/>
</svg>
