<svg width="37" height="39" viewBox="0 0 37 39" fill="none" xmlns="http://www.w3.org/2000/svg">
<path d="M18.5002 3.7832C27.0148 3.7832 33.9168 10.8559 33.9168 19.5811C33.9168 28.3063 27.0148 35.3791 18.5002 35.3791C9.98554 35.3791 3.0835 28.3063 3.0835 19.5811C3.0835 10.8559 9.98554 3.7832 18.5002 3.7832ZM18.5002 10.1024C18.0913 10.1024 17.6992 10.2688 17.41 10.5651C17.1209 10.8614 16.9585 11.2632 16.9585 11.6822V19.5811C16.9586 20.0001 17.1211 20.4019 17.4102 20.6981L22.0352 25.4374C22.326 25.7252 22.7154 25.8844 23.1196 25.8808C23.5238 25.8772 23.9105 25.7111 24.1963 25.4182C24.4822 25.1253 24.6443 24.7291 24.6478 24.3148C24.6513 23.9006 24.4959 23.5016 24.2151 23.2036L20.0418 18.9271V11.6822C20.0418 11.2632 19.8794 10.8614 19.5903 10.5651C19.3012 10.2688 18.909 10.1024 18.5002 10.1024Z" fill="#190803"/>
</svg>
