<svg width="158" height="158" viewBox="0 0 158 158" fill="none" xmlns="http://www.w3.org/2000/svg">
<g filter="url(#filter0_i_109_21714)">
<rect width="158" height="158" rx="25" fill="#FFFCFB"/>
<rect x="1" y="1" width="156" height="156" rx="24" stroke="#5B3427" stroke-width="2"/>
<path d="M79.0003 24.8335L35.667 41.0835V74.071C35.667 101.425 54.1378 126.938 79.0003 133.167C103.863 126.938 122.334 101.425 122.334 74.071V41.0835L79.0003 24.8335ZM111.5 74.071C111.5 95.7377 97.6878 115.779 79.0003 121.9C60.3128 115.779 46.5003 95.7918 46.5003 74.071V48.1793L79.0003 36.696L111.5 48.1793V74.071ZM61.7753 71.3627L54.0837 79.0002L73.2587 98.1752L103.917 67.5168L96.2795 59.8793L73.3128 82.846L61.7753 71.3627Z" fill="#5B3427"/>
</g>
<defs>
<filter id="filter0_i_109_21714" x="0" y="0" width="158" height="158" filterUnits="userSpaceOnUse" color-interpolation-filters="sRGB">
<feFlood flood-opacity="0" result="BackgroundImageFix"/>
<feBlend mode="normal" in="SourceGraphic" in2="BackgroundImageFix" result="shape"/>
<feColorMatrix in="SourceAlpha" type="matrix" values="0 0 0 0 0 0 0 0 0 0 0 0 0 0 0 0 0 0 127 0" result="hardAlpha"/>
<feOffset/>
<feGaussianBlur stdDeviation="3.5"/>
<feComposite in2="hardAlpha" operator="arithmetic" k2="-1" k3="1"/>
<feColorMatrix type="matrix" values="0 0 0 0 0 0 0 0 0 0 0 0 0 0 0 0 0 0 0.35 0"/>
<feBlend mode="normal" in2="shape" result="effect1_innerShadow_109_21714"/>
</filter>
</defs>
</svg>
