<svg width="34" height="33" viewBox="0 0 34 33" fill="none" xmlns="http://www.w3.org/2000/svg">
<path d="M30.75 8.26551H24.3438C24.3438 6.24961 23.5338 4.31628 22.0921 2.89082C20.6504 1.46536 18.6951 0.664551 16.6562 0.664551C14.6174 0.664551 12.6621 1.46536 11.2204 2.89082C9.77868 4.31628 8.96875 6.24961 8.96875 8.26551H2.5625C1.88288 8.26551 1.2311 8.53245 0.750539 9.0076C0.269977 9.48276 0 10.1272 0 10.7992V29.8016C0 30.4735 0.269977 31.118 0.750539 31.5931C1.2311 32.0683 1.88288 32.3352 2.5625 32.3352H30.75C31.4296 32.3352 32.0814 32.0683 32.562 31.5931C33.0425 31.118 33.3125 30.4735 33.3125 29.8016V10.7992C33.3125 10.1272 33.0425 9.48276 32.562 9.0076C32.0814 8.53245 31.4296 8.26551 30.75 8.26551ZM16.6562 3.1982C18.0155 3.1982 19.319 3.73208 20.2802 4.68238C21.2413 5.63269 21.7812 6.92158 21.7812 8.26551H11.5312C11.5312 6.92158 12.0712 5.63269 13.0323 4.68238C13.9935 3.73208 15.297 3.1982 16.6562 3.1982ZM30.75 29.8016H2.5625V10.7992H8.96875V13.3328C8.96875 13.6688 9.10374 13.991 9.34402 14.2286C9.5843 14.4662 9.91019 14.5996 10.25 14.5996C10.5898 14.5996 10.9157 14.4662 11.156 14.2286C11.3963 13.991 11.5312 13.6688 11.5312 13.3328V10.7992H21.7812V13.3328C21.7812 13.6688 21.9162 13.991 22.1565 14.2286C22.3968 14.4662 22.7227 14.5996 23.0625 14.5996C23.4023 14.5996 23.7282 14.4662 23.9685 14.2286C24.2088 13.991 24.3438 13.6688 24.3438 13.3328V10.7992H30.75V29.8016Z" fill="#190803"/>
</svg>
