<svg width="24" height="18" viewBox="0 0 24 18" fill="none" xmlns="http://www.w3.org/2000/svg">
<path fill-rule="evenodd" clip-rule="evenodd" d="M3 1C3 0.447715 3.44772 0 4 0H23C23.5523 0 24 0.447715 24 1C24 1.55228 23.5523 2 23 2H4C3.44772 2 3 1.55228 3 1Z" fill="#190803"/>
<path fill-rule="evenodd" clip-rule="evenodd" d="M3 9C3 8.44772 3.44772 8 4 8H23C23.5523 8 24 8.44772 24 9C24 9.55228 23.5523 10 23 10H4C3.44772 10 3 9.55228 3 9Z" fill="#190803"/>
<path fill-rule="evenodd" clip-rule="evenodd" d="M3 17C3 16.4477 3.44772 16 4 16H23C23.5523 16 24 16.4477 24 17C24 17.5523 23.5523 18 23 18H4C3.44772 18 3 17.5523 3 17Z" fill="#190803"/>
<path d="M2 17C2 17.5523 1.55228 18 1 18C0.447715 18 0 17.5523 0 17C0 16.4477 0.447715 16 1 16C1.55228 16 2 16.4477 2 17Z" fill="#190803"/>
<path d="M2 9C2 9.55228 1.55228 10 1 10C0.447715 10 0 9.55228 0 9C0 8.44772 0.447715 8 1 8C1.55228 8 2 8.44772 2 9Z" fill="#190803"/>
<path d="M2 1C2 1.55228 1.55228 2 1 2C0.447715 2 0 1.55228 0 1C0 0.447715 0.447715 0 1 0C1.55228 0 2 0.447715 2 1Z" fill="#190803"/>
</svg>
