<svg width="28" height="24" viewBox="0 0 28 24" fill="none" xmlns="http://www.w3.org/2000/svg">
<path d="M14.1166 20.1875L13.9999 20.3125L13.8716 20.1875C8.32992 14.8 4.66659 11.2375 4.66659 7.625C4.66659 5.125 6.41658 3.25 8.74992 3.25C10.5466 3.25 12.2966 4.5 12.9149 6.2H15.0849C15.7033 4.5 17.4533 3.25 19.2499 3.25C21.5833 3.25 23.3333 5.125 23.3333 7.625C23.3333 11.2375 19.6699 14.8 14.1166 20.1875ZM19.2499 0.75C17.2199 0.75 15.2716 1.7625 13.9999 3.35C12.7283 1.7625 10.7799 0.75 8.74992 0.75C5.15659 0.75 2.33325 3.7625 2.33325 7.625C2.33325 12.3375 6.29992 16.2 12.3083 22.0375L13.9999 23.6875L15.6916 22.0375C21.6999 16.2 25.6666 12.3375 25.6666 7.625C25.6666 3.7625 22.8433 0.75 19.2499 0.75Z" fill="#190803"/>
</svg>
