<svg width="27" height="27" viewBox="0 0 27 27" fill="none" xmlns="http://www.w3.org/2000/svg">
<path fill-rule="evenodd" clip-rule="evenodd" d="M7.25 17.667C5.97904 17.667 4.76697 18.1582 3.87871 19.0218C2.99164 19.8842 2.5 21.0463 2.5 22.2503C2.5 22.6808 2.67557 23.101 3.00003 23.4165C3.32569 23.7331 3.77469 23.917 4.25 23.917H22.25C22.7253 23.917 23.1743 23.7331 23.5 23.4165C23.8244 23.101 24 22.6808 24 22.2503C24 21.0463 23.5084 19.8842 22.6213 19.0218C21.733 18.1582 20.521 17.667 19.25 17.667H7.25ZM2.13601 17.2293C3.49818 15.905 5.33837 15.167 7.25 15.167H19.25C21.1616 15.167 23.0018 15.905 24.364 17.2293C25.7274 18.5548 26.5 20.3602 26.5 22.2503C26.5 23.3669 26.0434 24.4305 25.2427 25.209C24.4431 25.9863 23.366 26.417 22.25 26.417H4.25C3.13401 26.417 2.05689 25.9863 1.25733 25.209C0.456575 24.4305 0 23.3669 0 22.2503C0 20.3602 0.772645 18.5548 2.13601 17.2293Z" fill="#190803"/>
<path fill-rule="evenodd" clip-rule="evenodd" d="M13.25 3.0835C11.4216 3.0835 10 4.51557 10 6.2085C10 7.90143 11.4216 9.3335 13.25 9.3335C15.0784 9.3335 16.5 7.90143 16.5 6.2085C16.5 4.51557 15.0784 3.0835 13.25 3.0835ZM7.5 6.2085C7.5 3.06893 10.1078 0.583496 13.25 0.583496C16.3922 0.583496 19 3.06893 19 6.2085C19 9.34806 16.3922 11.8335 13.25 11.8335C10.1078 11.8335 7.5 9.34806 7.5 6.2085Z" fill="#190803"/>
</svg>
