<svg width="17" height="17" viewBox="0 0 17 17" fill="none" xmlns="http://www.w3.org/2000/svg">
<path d="M15.3763 16.8367L9.54071 11.0011C9.07756 11.3716 8.54495 11.6649 7.94287 11.881C7.34079 12.0972 6.70011 12.2052 6.02083 12.2052C4.33809 12.2052 2.91408 11.6223 1.74882 10.4564C0.583558 9.29054 0.000617521 7.86654 0 6.18441C0 4.50166 0.58294 3.07766 1.74882 1.91239C2.9147 0.747132 4.33871 0.164192 6.02083 0.163574C7.70358 0.163574 9.12789 0.746514 10.2938 1.91239C11.4597 3.07827 12.0423 4.50228 12.0417 6.18441C12.0417 6.86368 11.9336 7.50436 11.7175 8.10644C11.5013 8.70853 11.208 9.24114 10.8375 9.70428L16.6731 15.5399L15.3763 16.8367ZM6.02083 10.3527C7.17869 10.3527 8.16301 9.94758 8.97382 9.13739C9.78463 8.32721 10.1897 7.34288 10.1891 6.18441C10.1891 5.02656 9.78401 4.04253 8.97382 3.23235C8.16363 2.42216 7.1793 2.01676 6.02083 2.01614C4.86298 2.01614 3.87896 2.42154 3.06877 3.23235C2.25858 4.04315 1.85318 5.02717 1.85256 6.18441C1.85256 7.34226 2.25797 8.32659 3.06877 9.13739C3.87958 9.9482 4.8636 10.3533 6.02083 10.3527Z" fill="#5B3427" fill-opacity="0.5"/>
</svg>
