<svg width="29" height="29" viewBox="0 0 29 29" fill="none" xmlns="http://www.w3.org/2000/svg">
<path d="M14.7713 14.7412C13.677 13.251 12.3109 10.8782 11.9193 7.77996C11.7469 6.4094 11.4977 4.18061 12.8 2.3613C13.083 1.96677 13.7632 1.01505 14.7413 1.00009C15.8207 0.98139 16.5946 2.11636 16.8644 2.51275C18.1555 4.40685 17.8126 6.69548 17.5615 8.23432C17.3404 9.59367 16.7314 12.0674 14.7713 14.7412Z" stroke="#190803" stroke-width="0.422667" stroke-miterlimit="10"/>
<path d="M14.7726 14.7416C15.8669 16.2318 17.2329 18.6046 17.6246 21.7028C17.797 23.0734 18.0462 25.3022 16.7439 27.1215C16.4609 27.516 15.7807 28.4677 14.8026 28.4827C13.7232 28.5014 12.9493 27.3664 12.6795 26.97C11.3884 25.0759 11.7313 22.7873 11.9824 21.2484C12.2035 19.8891 12.8125 17.4154 14.7726 14.7416Z" stroke="#190803" stroke-width="0.422667" stroke-miterlimit="10"/>
<path d="M14.7712 14.7435C13.2777 15.8354 10.8998 17.1985 7.79483 17.5893C6.42129 17.7613 4.18766 18.01 2.3644 16.7105C1.96901 16.4282 1.01522 15.7494 1.00023 14.7734C0.98149 13.6964 2.11892 12.9242 2.51618 12.6549C4.41439 11.3666 6.70799 11.7088 8.25018 11.9594C9.61247 12.18 12.0916 12.7877 14.7712 14.7435Z" stroke="#190803" stroke-width="0.422667" stroke-miterlimit="10"/>
<path d="M14.7715 14.7418C16.2649 13.6498 18.6429 12.2868 21.7479 11.896C23.1214 11.724 25.355 11.4753 27.1783 12.7748C27.5737 13.0571 28.5275 13.7359 28.5425 14.7119C28.5612 15.7889 27.4238 16.5611 27.0265 16.8304C25.1283 18.1187 22.8347 17.7765 21.2925 17.5259C19.9302 17.3053 17.4511 16.6976 14.7715 14.7418Z" stroke="#190803" stroke-width="0.422667" stroke-miterlimit="10"/>
<path d="M19.7552 14.7413C19.7552 17.4768 17.5328 19.6963 14.7894 19.6963C12.048 19.6963 9.82373 17.4768 9.82373 14.7413C9.82373 12.0058 12.048 9.78637 14.7894 9.78637C17.5328 9.78637 19.7552 12.0058 19.7552 14.7413Z" stroke="#190803" stroke-width="0.422667" stroke-miterlimit="10"/>
</svg>
