<svg width="118" height="136" viewBox="0 0 118 136" fill="none" xmlns="http://www.w3.org/2000/svg">
<g clip-path="url(#clip0_4001_390)">
<mask id="mask0_4001_390" style="mask-type:luminance" maskUnits="userSpaceOnUse" x="0" y="0" width="118" height="136">
<path d="M0 -1.52588e-05H118V136H0V-1.52588e-05Z" fill="white"/>
</mask>
<g mask="url(#mask0_4001_390)">
<path d="M80.2705 43.96C78.6239 45.0721 76.6523 45.6123 74.2407 45.6123C72.706 45.6123 71.2454 45.3947 69.8779 45.1732C68.7901 44.9975 67.7062 44.7419 66.6301 44.4232C67.1576 43.2194 67.4553 41.8944 67.4553 40.501C67.4553 39.1052 67.1576 37.7787 66.6286 36.5749C67.9703 36.1816 69.3301 35.8855 70.7156 35.7122C71.7674 35.5809 72.8982 35.4534 74.1274 35.4534C76.732 35.4534 78.831 36.0441 80.5541 37.2689C81.2426 37.76 82.8547 38.9094 82.879 40.452C82.9071 42.1695 80.9941 43.4689 80.2705 43.96ZM62.1196 47.9476C61.4592 46.0661 60.5801 44.2383 59.4978 42.4679C61.2725 43.5326 63.1261 44.4116 65.0211 45.0745C64.2951 46.2441 63.2996 47.2295 62.1196 47.9476ZM62.3305 53.6285C62.6142 55.8892 63.144 60.0966 60.7723 63.3995C60.2792 64.0873 59.125 65.6991 57.5652 65.7224L57.5254 66.2788V65.7224C55.8085 65.7224 54.4785 63.7725 54.0409 63.1298C51.6902 59.6933 52.3959 55.3755 52.8179 52.7962C52.9968 51.6988 53.2602 50.6062 53.5868 49.5228C54.7996 50.0521 56.1383 50.3505 57.5465 50.3505C58.9343 50.3505 60.2581 50.0622 61.4592 49.5469C61.8562 50.8844 62.1555 52.2444 62.3305 53.6285ZM50.0671 45.062C51.9481 44.4046 53.7752 43.5342 55.5467 42.4617C54.4832 44.215 53.6009 46.0459 52.9327 47.9227C51.7684 47.2031 50.7853 46.2239 50.0671 45.062ZM44.3102 45.2897C43.2583 45.4211 42.1275 45.5485 40.9022 45.5485C38.2953 45.5485 36.1963 44.9579 34.4716 43.7316C33.7855 43.2404 32.1765 42.091 32.1522 40.5484C32.121 38.8255 34.1074 37.4833 34.76 37.0419C36.4065 35.9298 38.3765 35.3889 40.7858 35.3889C42.3198 35.3889 43.7811 35.6058 45.1487 35.8296C46.2568 36.0068 47.3602 36.2694 48.4558 36.5974C47.9345 37.795 47.6431 39.1138 47.6431 40.501C47.6431 41.8897 47.9353 43.2101 48.4581 44.4092C47.1 44.8118 45.7183 45.1133 44.3102 45.2897ZM52.9218 33.0816C53.5837 34.9561 54.4581 36.7769 55.5358 38.5395C53.7752 37.4826 51.9403 36.6067 50.0609 35.9454C50.7798 34.7828 51.759 33.8028 52.9218 33.0816ZM52.6999 27.3696C52.4154 25.1089 51.8856 20.9022 54.2612 17.5963C54.7543 16.9085 55.9109 15.299 57.5058 15.2749C59.2188 15.2749 60.552 17.2271 60.9903 17.869C63.3378 21.2993 62.6634 25.4539 62.2157 28.2019C62.0359 29.3016 61.7788 30.3834 61.4592 31.4512C60.2581 30.9351 58.9343 30.6476 57.5465 30.6476C56.1359 30.6476 54.795 30.9468 53.5782 31.4784C53.1781 30.1323 52.8757 28.763 52.6999 27.3696ZM57.5121 39.5443C55.9492 37.3131 54.7574 34.9724 53.9197 32.5485C55.0271 32.0464 56.2532 31.7597 57.5465 31.7597C58.8202 31.7597 60.026 32.0356 61.1201 32.5221C60.2761 34.9623 59.0719 37.3124 57.5121 39.5443ZM48.7605 40.501C48.7605 39.2311 49.0403 38.0266 49.5311 36.9362C51.9653 37.7763 54.3362 38.9778 56.5493 40.5018C54.3097 42.0514 51.963 43.2365 49.5334 44.0688C49.0403 42.9777 48.7605 41.7724 48.7605 40.501ZM57.5199 41.4576C59.0867 43.6958 60.2823 46.0443 61.1201 48.476C60.026 48.9617 58.8202 49.2384 57.5465 49.2384C56.2555 49.2384 55.0317 48.9524 53.9283 48.4535C54.7746 46.021 55.9836 43.6577 57.5199 41.4576ZM66.3355 40.501C66.3355 41.7786 66.0518 42.9894 65.5548 44.0836C63.0979 43.242 60.7059 42.0358 58.4756 40.5002C60.7356 38.9374 63.1026 37.7452 65.5525 36.9121C66.0518 38.0087 66.3355 39.221 66.3355 40.501ZM65.0164 35.9182C63.1229 36.5764 61.2795 37.4523 59.4931 38.5325C60.5723 36.7653 61.4514 34.9351 62.1156 33.0482C63.2964 33.7663 64.2904 34.7501 65.0164 35.9182ZM81.191 36.3557C79.2843 34.9996 76.9735 34.3414 74.1274 34.3414C72.8325 34.3414 71.6635 34.4727 70.5773 34.6087C69.0612 34.7983 67.5726 35.1294 66.1112 35.5692C65.236 34.0732 63.9802 32.8267 62.4712 31.9625C62.8315 30.7875 63.1214 29.5938 63.3214 28.3807C63.7669 25.6342 64.5116 21.0398 61.914 17.2442C61.3936 16.4818 59.8088 14.1636 57.4496 14.1636H57.448C55.3271 14.1955 53.9424 16.1259 53.3508 16.952C50.7228 20.6085 51.287 25.0965 51.5902 27.5087C51.7832 29.0319 52.1192 30.5271 52.5694 31.9952C51.0783 32.8624 49.8358 34.1035 48.9708 35.5918C47.7658 35.2211 46.5498 34.9273 45.3284 34.7315C43.9163 34.5014 42.4034 34.2776 40.7858 34.2776C38.1445 34.2776 35.9681 34.8807 34.1317 36.1226C33.3557 36.6471 30.9918 38.2434 31.0348 40.567C31.0668 42.6669 32.9954 44.0455 33.8347 44.6455C35.7415 46.0016 38.0546 46.6614 40.9022 46.6614C42.194 46.6614 43.363 46.5285 44.45 46.3933C45.9879 46.2006 47.493 45.864 48.9754 45.4149C49.8405 46.9023 51.0838 48.1419 52.5772 49.0084C52.2052 50.2005 51.9129 51.4066 51.7137 52.6174C51.2643 55.3607 50.5141 59.9521 53.1148 63.7547C53.6353 64.517 55.2154 66.8345 57.5254 66.8345H57.5824C59.708 66.8026 61.1427 64.7999 61.6827 64.0461C64.3084 60.3896 63.7442 55.9016 63.4402 53.4894C63.248 51.9778 62.9151 50.4935 62.4696 49.0356C63.9802 48.1714 65.2368 46.9248 66.1128 45.4281C67.2998 45.7894 68.497 46.0778 69.6981 46.2705C71.1094 46.5005 72.6223 46.7243 74.2407 46.7243C76.8821 46.7243 79.0615 46.1213 80.9042 44.8755C81.6794 44.3494 84.034 42.75 83.9957 40.4342C83.9652 38.332 82.0311 36.9533 81.191 36.3557Z" fill="white"/>
<path d="M93.8244 107.004C93.4508 107.076 93.1719 107.035 92.9851 106.882C92.7428 106.686 92.5787 106.439 92.4912 106.146C92.4029 105.851 92.3755 105.536 92.4084 105.205C92.4412 104.871 92.5217 104.538 92.6475 104.205C92.7733 103.873 92.9319 103.564 93.1242 103.28C93.3172 102.997 93.5274 102.754 93.7579 102.552C93.9885 102.35 94.219 102.222 94.4495 102.167C94.8551 102.069 95.1747 102.085 95.4045 102.216C95.635 102.348 95.7968 102.547 95.8905 102.813C95.9835 103.081 96.0195 103.392 95.9968 103.747C95.9749 104.102 95.9148 104.451 95.8163 104.794C95.7178 105.139 95.5944 105.458 95.4459 105.752C95.2982 106.047 95.1466 106.265 94.9927 106.407L94.927 106.472C94.5652 106.757 94.1979 106.933 93.8244 107.004ZM88.7683 108.294C88.6699 108.42 88.5745 108.543 88.4909 108.65C88.4315 108.726 88.3823 108.787 88.3307 108.853C88.4456 108.555 88.5925 108.368 88.7683 108.294ZM59.0425 111.22C58.5932 111.613 58.2368 111.81 57.9727 111.81C57.4686 111.81 57.2155 111.426 57.2155 110.663C57.2155 109.975 57.5069 109.048 58.0891 107.88C59.2293 105.567 60.1186 103.984 60.7555 103.133C61.6877 101.878 62.445 101.25 63.0264 101.25C63.6414 101.25 63.9485 101.649 63.9485 102.446C63.9485 103.057 63.2014 104.77 61.7096 107.586C60.843 109.212 59.9537 110.423 59.0425 111.22ZM49.529 110.63C48.9695 110.347 48.5163 110.126 48.1709 109.968C47.8255 109.809 47.5918 109.708 47.4715 109.665L46.7142 109.435C46.9666 108.933 47.1753 108.516 47.3394 108.183C47.5043 107.851 47.6301 107.602 47.7184 107.438C48.2451 106.457 48.7163 105.611 49.1344 104.901C49.5509 104.192 49.9487 103.611 50.3269 103.158C50.7059 102.704 51.0787 102.369 51.4467 102.15C51.814 101.933 52.2063 101.824 52.6236 101.824C53.1941 101.824 53.4793 102.184 53.4793 102.904C53.4793 103.668 53.0292 104.907 52.1297 106.62C51.6577 107.515 51.2076 108.295 50.7794 108.96C50.3519 109.627 49.9346 110.183 49.529 110.63ZM48.8296 111.44C48.6812 111.566 48.5139 111.684 48.3272 111.792C48.1404 111.902 47.9513 111.989 47.759 112.054C47.5676 112.12 47.3941 112.152 47.2409 112.152C46.5165 112.152 46.0281 111.864 45.7757 111.286C45.9406 110.903 46.0859 110.598 46.2118 110.369C46.3384 110.139 46.4618 109.982 46.5822 109.894C47.6692 110.145 48.5249 110.533 49.1508 111.056C49.0844 111.187 48.9773 111.316 48.8296 111.44ZM44.8372 110.385C44.6621 110.571 44.4808 110.739 44.2948 110.892C44.0206 111.111 43.7486 111.286 43.4798 111.416C43.2102 111.547 42.9586 111.642 42.7226 111.703C42.4866 111.762 42.2865 111.792 42.1216 111.792C41.8145 111.792 41.5676 111.714 41.3808 111.555C41.194 111.397 41.101 111.16 41.101 110.843C41.101 109.61 42.1052 107.52 44.1135 104.574C44.7387 103.668 45.3311 102.991 45.8914 102.544C46.4509 102.097 46.9448 101.872 47.373 101.872C48.0201 101.872 48.3436 102.249 48.3436 103.002C48.3436 103.254 48.3162 103.521 48.2615 103.804C48.2396 103.913 48.2068 104.023 48.1623 104.131C47.3503 105.54 46.5056 107.105 45.628 108.83C45.3647 109.353 45.1013 109.872 44.8372 110.385ZM32.015 111.22C31.5649 111.613 31.2086 111.81 30.9452 111.81C30.4404 111.81 30.188 111.426 30.188 110.663C30.188 109.975 30.4787 109.048 31.0601 107.88C32.2018 105.567 33.0903 103.984 33.7272 103.133C34.6595 101.878 35.4167 101.25 35.9981 101.25C36.6131 101.25 36.9202 101.649 36.9202 102.446C36.9202 103.057 36.1739 104.77 34.6814 107.586C33.8147 109.212 32.9254 110.423 32.015 111.22ZM13.1843 99.777C13.8641 99.4941 14.4127 99.3511 14.83 99.3511C15.6638 99.3628 16.3609 99.6604 16.9204 100.244C17.4799 100.828 17.8097 101.54 17.9082 102.38C17.4033 102.555 16.9478 102.642 16.5414 102.642C15.7623 102.642 15.0551 102.348 14.4182 101.758C13.8477 101.234 13.4359 100.574 13.1843 99.777ZM9.31527 112.186C8.54788 111.291 8.1634 110.172 8.1634 108.83C8.1634 106.767 8.95345 104.568 10.5336 102.232C11.2361 101.195 11.9824 100.465 12.7724 100.039C12.9592 100.672 13.2554 101.223 13.6609 101.693C14.5174 102.686 15.4935 103.182 16.5914 103.182C16.8219 103.182 17.2658 103.101 17.9246 102.937C17.7159 104.159 17.5299 104.982 17.3651 105.408C16.904 106.631 16.3117 107.701 15.5872 108.617C14.6214 109.85 13.6336 110.467 12.624 110.467C12.0316 110.467 11.5651 110.172 11.2251 109.582C11.1259 109.616 11.0767 109.671 11.0767 109.746C11.0767 110.521 11.6471 110.909 12.7888 110.909C13.1616 110.909 13.65 110.745 14.2541 110.418C14.8136 110.123 15.2356 109.822 15.5216 109.517C16.7938 108.176 17.6612 106.603 18.1223 104.803C18.2755 104.203 18.3638 103.51 18.3856 102.724C19.4609 102.014 20.147 101.513 20.4432 101.218C22.1108 99.5804 22.9447 97.7308 22.9447 95.6682C22.9447 95.167 22.8243 94.7085 22.5828 94.2943C22.2976 93.8023 21.9186 93.556 21.4474 93.556C21.1176 93.556 20.8355 93.6881 20.5995 93.9492C20.3635 94.2119 20.2455 94.5064 20.2455 94.8336C20.2455 95.0302 20.3111 95.1289 20.4432 95.1289C20.5526 95.1289 20.6081 94.975 20.6081 94.6704C20.6081 94.2554 20.8652 94.0479 21.381 94.0479C21.9952 94.0479 22.3031 94.5227 22.3031 95.4716C22.3031 96.269 22.0804 97.1938 21.6365 98.246C21.1919 99.2998 20.6902 100.138 20.1306 100.76C19.9329 100.966 19.6524 101.207 19.2906 101.48L18.3528 102.167C18.2098 101.447 17.9793 100.874 17.6612 100.448C16.8712 99.3783 15.8998 98.8444 14.748 98.8444C14.3525 98.8444 13.8204 98.9695 13.1514 99.2206L13.1843 98.5662C13.2937 96.5798 14.3635 94.7085 16.3937 92.9506C18.3802 91.2269 20.6128 90.3642 23.0931 90.3642C25.5508 90.3642 27.5701 90.965 29.151 92.1657C28.3492 93.0819 27.7405 93.7642 27.3232 94.2119C25.6227 96.7765 24.6013 98.3914 24.2614 99.0566C22.078 103.357 20.5745 106.337 19.7516 107.995C17.7652 111.749 15.3512 113.626 12.5091 113.626C11.1923 113.626 10.1272 113.145 9.31527 112.186ZM37.6329 79.513C37.3149 78.9465 37.1555 78.3247 37.1555 77.6479C37.1555 76.1418 37.7322 74.8532 38.884 73.7847C40.0031 72.748 41.3253 72.2288 42.8507 72.2288C43.9815 72.2288 45.0896 72.6438 46.1758 73.4738C44.9474 74.2261 44.2831 74.6403 44.1847 74.7165C41.8903 76.5179 40.4806 77.7186 39.9539 78.3185C38.9989 79.4096 38.4394 80.0702 38.2753 80.2995C37.9564 79.9715 37.7423 79.7104 37.6329 79.513ZM47.18 75.7485C47.18 76.0757 47.0096 76.6547 46.6697 77.4839C46.4986 77.8857 46.3712 78.1375 46.2829 78.2556C46.3032 78.2595 46.3149 78.2696 46.3407 78.2696C46.7791 78.2696 47.1362 77.9315 47.4105 77.2546C47.6082 76.7635 47.7067 76.3485 47.7067 76.0096C47.7067 75.3662 47.5035 74.603 47.0979 73.7186C47.4707 73.5663 47.7122 73.4738 47.8223 73.4404C48.7218 73.058 49.7041 72.8676 50.7684 72.8676C51.4374 72.8676 52.0086 73.0308 52.4806 73.358C53.0182 73.7303 53.2871 74.2315 53.2871 74.8649C53.2871 75.6397 53.0073 76.4029 52.4478 77.1559C51.3061 78.6947 49.8143 79.8891 47.97 80.7409C46.3899 81.4722 44.8426 81.8382 43.3282 81.8382C41.6277 81.8382 40.3047 81.5375 39.3615 80.9375C39.8226 80.2723 40.1461 79.8301 40.3321 79.6117C41.616 78.1499 42.3404 77.3308 42.5053 77.1559C43.7564 75.8464 45.106 74.7942 46.5548 73.9968C46.9166 74.7499 47.1253 75.3343 47.18 75.7485ZM39.4272 91.6753C40.0414 90.1816 41.0784 88.7291 42.5381 87.3217C44.1729 85.7395 45.6546 84.9483 46.9831 84.9483C48.0583 84.9483 48.596 85.5483 48.596 86.749C48.596 87.8401 48.1021 89.0353 47.1143 90.3339C45.1169 92.9529 42.7413 94.2624 39.9867 94.2624C39.3943 94.2624 38.9497 94.2243 38.6535 94.1482C38.8731 93.221 39.131 92.3965 39.4272 91.6753ZM54.9328 83.9007C55.987 81.8281 56.8755 80.1689 57.6007 78.9239C58.0493 78.1608 58.3619 77.6416 58.5377 77.3689C59.1636 76.2995 59.5755 75.5908 59.7724 75.241C60.6289 73.888 61.3197 73.2111 61.8464 73.2111C62.2082 73.2111 62.3895 73.4513 62.3895 73.9316C62.3895 74.8805 61.8737 76.228 60.8422 77.975C59.3387 80.5287 57.0615 83.1904 54.0115 85.9633C54.0881 85.647 54.3952 84.9592 54.9328 83.9007ZM63.4765 86.7824C65.1324 84.0865 66.2085 82.7381 66.7023 82.7381C66.9876 82.7381 67.1306 82.9239 67.1306 83.2946C67.1306 83.9823 66.5922 84.8722 65.5169 85.9633C64.5401 86.9565 63.657 87.6108 62.8677 87.9279L62.8013 87.8782L63.4765 86.7824ZM100.936 106.457C100.211 107.416 99.6509 108.148 99.2563 108.65C98.8616 109.152 98.6358 109.442 98.5811 109.517C97.3081 111.077 96.293 111.858 95.5358 111.858C94.8786 111.858 94.5488 111.464 94.5488 110.68C94.5488 110.068 94.9442 109.015 95.7335 107.52C95.8108 107.368 95.939 107.122 96.1203 106.784C96.3016 106.446 96.5079 106.066 96.7384 105.646C96.9682 105.226 97.2073 104.789 97.4542 104.336C97.7004 103.883 97.9341 103.46 98.1536 103.067C98.3725 102.675 98.5647 102.337 98.7288 102.053C98.8937 101.77 99.0039 101.583 99.0586 101.496L98.9593 101.463C98.6202 101.583 98.3326 101.684 98.0958 101.766C97.8598 101.848 97.6707 101.9 97.5277 101.921C97.4402 102.053 97.3527 102.206 97.2643 102.38L97.001 102.888C96.9127 103.051 96.8338 103.21 96.7626 103.362C96.6915 103.515 96.6282 103.635 96.5735 103.723C96.5954 103.548 96.5892 103.354 96.5571 103.141C96.5235 102.929 96.4579 102.724 96.3586 102.527C96.2609 102.331 96.1203 102.16 95.939 102.012C95.7593 101.864 95.5311 101.77 95.2568 101.725C94.7731 101.649 94.3183 101.644 93.8908 101.709C93.4618 101.774 93.0757 101.9 92.7296 102.085C92.3841 102.271 92.088 102.514 91.841 102.813C91.5941 103.114 91.4042 103.46 91.2729 103.853C91.1408 104.431 91.1221 104.953 91.2151 105.417C91.3081 105.881 91.4839 106.271 91.7418 106.587C91.9997 106.904 92.3232 107.13 92.7131 107.266C93.1031 107.403 93.5337 107.422 94.0049 107.324C93.5446 108.012 93.0937 108.636 92.6561 109.198C92.2161 109.76 91.8027 110.24 91.4128 110.639C91.0229 111.036 90.661 111.342 90.3266 111.555C89.9913 111.768 89.6873 111.875 89.4123 111.875C88.9301 111.864 88.5902 111.708 88.3925 111.408C88.1948 111.108 88.0963 110.756 88.0963 110.352C88.0963 110.102 88.1174 109.878 88.1447 109.662C88.4894 109.248 88.8481 108.799 89.2294 108.288C89.3169 108.309 89.4037 108.34 89.4873 108.38C89.6569 108.461 89.8249 108.491 89.9898 108.47C90.318 108.415 90.5594 108.254 90.7134 107.987C90.8673 107.719 90.9408 107.437 90.9361 107.136C90.9299 106.836 90.8423 106.566 90.672 106.325C90.5024 106.085 90.2586 105.965 89.939 105.965C89.599 105.965 89.2888 106.069 89.0098 106.275C88.7293 106.484 88.4886 106.759 88.2854 107.103C88.0822 107.447 87.9228 107.845 87.8087 108.298C87.6923 108.751 87.6352 109.222 87.6352 109.714C87.6352 109.719 87.636 109.724 87.636 109.73C86.449 111.143 85.4917 111.858 84.7712 111.858C84.1124 111.858 83.7834 111.464 83.7834 110.68C83.7834 110.068 84.1781 109.015 84.9681 107.52C85.0455 107.368 85.1744 107.122 85.3557 106.784C85.5362 106.446 85.7418 106.066 85.9723 105.646C86.2028 105.226 86.4419 104.789 86.6881 104.336C86.9358 103.883 87.1687 103.46 87.3891 103.067C87.6071 102.675 87.7993 102.337 87.9642 102.053C88.1291 101.77 88.2393 101.583 88.294 101.496L88.1948 101.463C87.854 101.583 87.5665 101.684 87.3305 101.766C87.0945 101.848 86.9053 101.9 86.7631 101.921C86.7084 102.009 86.6529 102.091 86.5982 102.167C86.1583 102.648 85.7691 103.106 85.4292 103.542C85.0564 104.011 84.7266 104.454 84.4414 104.868C83.7397 105.872 83.1083 106.802 82.5487 107.66C81.9884 108.516 81.4758 109.257 81.01 109.886C80.5435 110.513 80.1176 111.002 79.7347 111.351C79.3502 111.7 78.9884 111.875 78.6477 111.875C78.1648 111.864 77.8248 111.708 77.6263 111.408C77.4302 111.108 77.3309 110.756 77.3309 110.352C77.3309 109.763 77.4075 109.267 77.5607 108.863C77.7154 108.459 77.9233 108.256 78.1866 108.256C78.3734 108.256 78.5516 108.298 78.7219 108.38C78.8923 108.461 79.0587 108.491 79.2236 108.47C79.5526 108.415 79.7941 108.254 79.948 107.987C80.1012 107.719 80.1754 107.437 80.17 107.136C80.1653 106.836 80.0762 106.566 79.9066 106.325C79.737 106.085 79.4924 105.965 79.1744 105.965C78.8337 105.965 78.5242 106.069 78.2445 106.275C77.9639 106.484 77.7232 106.759 77.5201 107.103C77.3169 107.447 77.1582 107.845 77.0426 108.298C77.027 108.36 77.0207 108.424 77.0074 108.487C76.805 108.7 76.6003 108.886 76.3924 109.042C75.9861 109.348 75.5828 109.514 75.1835 109.542C74.7818 109.569 74.4169 109.392 74.0879 109.01C74.2082 108.857 74.3239 108.705 74.4341 108.552C74.5435 108.399 74.6537 108.246 74.7631 108.093C75.7618 106.533 76.2603 105.207 76.2603 104.115C76.2603 103.723 76.2252 103.36 76.1541 103.026C76.0822 102.694 75.972 102.405 75.8243 102.16C75.6758 101.913 75.4867 101.72 75.2562 101.578C75.0256 101.436 74.7576 101.365 74.4505 101.365C74.0988 101.365 73.7198 101.472 73.315 101.684C72.9079 101.897 72.5 102.173 72.0881 102.511C71.6763 102.849 71.2676 103.229 70.862 103.649C70.4565 104.069 70.0743 104.483 69.7172 104.893C69.3609 105.302 69.0342 105.684 68.738 106.039C68.7169 106.065 68.7005 106.083 68.6794 106.108C68.613 106.074 68.5646 106.052 68.5411 106.047C67.2353 107.826 66.0991 109.19 65.134 110.139C64.2118 111.046 63.4976 111.498 62.9943 111.498C62.445 111.498 62.1707 111.1 62.1707 110.303C62.1707 109.725 62.4723 108.857 63.0756 107.701C63.9321 106.108 64.519 105.037 64.837 104.492L66.6812 101.267C66.6258 101.114 66.5109 101.038 66.3351 101.038C65.9732 101.038 65.6716 101.158 65.4301 101.397C65.1222 101.78 64.8151 102.167 64.508 102.56C64.4744 102.44 64.4588 102.353 64.4588 102.298C64.3486 101.273 63.8766 100.76 63.0428 100.76C61.6057 100.76 60.042 101.982 58.3509 104.427C57.7148 105.349 57.2366 106.253 56.913 107.137C56.5411 107.569 56.1996 107.971 55.9237 108.306C55.5009 108.819 55.1641 109.217 54.9117 109.501C53.77 110.767 52.6127 111.399 51.4381 111.399C51.1529 111.399 50.8403 111.286 50.5004 111.056C52.969 108.601 54.2037 106.118 54.2037 103.608C54.2037 102.101 53.6825 101.349 52.64 101.349C52.1571 101.349 51.4655 101.644 50.566 102.232L50.4512 102.184C51.5476 100.252 52.4892 98.8087 53.2738 97.8536C54.0584 96.8985 54.7468 96.4221 55.3392 96.4221C55.4165 96.4221 55.5338 96.4493 55.6932 96.5029C55.8526 96.5589 55.9542 96.5853 55.9979 96.5853C56.1839 96.5853 56.2777 96.4975 56.2777 96.3234C56.2777 96.0731 56.0691 95.9465 55.6525 95.9465C54.2147 95.9465 52.272 97.786 49.8252 101.463C49.529 101.91 49.2274 102.386 48.9203 102.888C48.7773 102.429 48.585 102.069 48.3436 101.807C48.0583 101.48 47.7075 101.316 47.2902 101.316C46.7197 101.316 46.1156 101.483 45.4795 101.815C44.8426 102.149 44.212 102.648 43.5868 103.313C43.1914 103.739 42.7968 104.235 42.4014 104.803C42.1107 105.221 41.8497 105.651 41.6035 106.086C41.566 106.069 41.5285 106.05 41.5129 106.047C40.207 107.826 39.0708 109.19 38.1057 110.139C37.1836 111.046 36.4701 111.498 35.9653 111.498C35.4167 111.498 35.1424 111.1 35.1424 110.303C35.1424 109.725 35.4441 108.857 36.0473 107.701C36.9038 106.108 37.4907 105.037 37.8088 104.492L39.653 101.267C39.5975 101.114 39.4826 101.038 39.3068 101.038C38.945 101.038 38.6426 101.158 38.4019 101.397C38.0948 101.78 37.7869 102.167 37.4798 102.56C37.4469 102.44 37.4305 102.353 37.4305 102.298C37.3203 101.273 36.8483 100.76 36.0145 100.76C34.5774 100.76 33.0137 101.982 31.3234 104.427C31.1945 104.613 31.0773 104.798 30.9616 104.982L30.9507 104.978C30.8788 105.115 30.7999 105.243 30.7248 105.377C30.6326 105.537 30.5389 105.697 30.456 105.855C26.3096 112.692 18.27 113.752 14.5479 113.858C15.3864 113.556 16.2702 113.062 17.2002 112.365C18.5716 111.34 19.7407 110.156 20.7066 108.813C21.4419 107.798 22.078 106.724 22.6157 105.588L24.2286 102.216C26.1158 98.2771 27.2247 96.0071 27.5537 95.4063C28.2015 94.2391 28.8704 93.2847 29.562 92.5426C30.3302 93.1752 30.7147 94.1303 30.7147 95.4063C30.7147 97.207 30.1106 98.9043 28.9041 100.497C28.5305 100.945 28.2453 101.278 28.0476 101.496C27.4771 102.129 26.8848 102.446 26.2698 102.446C25.9517 102.446 25.6172 102.321 25.2664 102.069H25.1507C25.107 102.112 25.0851 102.162 25.0851 102.216C25.0851 102.718 25.5289 102.97 26.4182 102.97C27.0106 102.97 27.7076 102.714 28.5086 102.2C30.6819 100.814 31.7681 98.9812 31.7681 96.6995C31.7681 95.2152 31.2461 93.8249 30.2044 92.5255C30.0614 92.3514 29.9629 92.2309 29.9074 92.1657C30.9718 91.2494 31.872 90.6984 32.6074 90.5119C33.145 90.3705 33.5561 90.299 33.8421 90.299C34.1711 90.2881 34.561 90.414 35.0104 90.6751C35.0119 90.6743 35.0119 90.6735 35.0135 90.6728C35.3456 92.255 36.1114 93.4215 37.3203 94.1653C37.6822 94.3829 37.9291 94.5243 38.0612 94.5896V94.8359C38.0494 95.1305 38.0448 95.31 38.0448 95.376C38.0448 98.0494 39.2294 99.3861 41.5996 99.3861C42.3576 99.3861 43.2735 99.1296 44.3488 98.6167C45.3475 98.1256 46.143 97.5909 46.7361 97.0127C46.8955 96.8534 47.0706 96.6568 47.2527 96.4399C48.4069 95.2175 49.6681 93.4472 50.7301 91.2082C50.7161 91.38 50.7028 91.5494 50.7028 91.7087C50.7028 93.3135 51.2021 94.1147 52.2008 94.1147C52.9135 94.1147 53.7208 93.4829 54.6202 92.2162C55.136 91.4965 55.6627 90.7272 56.2003 89.9081C56.2886 89.985 56.3426 90.0557 56.3652 90.121C56.6176 90.787 57.1123 91.1204 57.8469 91.1204C58.5603 91.1204 59.2793 90.8026 60.0029 90.17C60.1772 90.0184 60.3358 89.8552 60.4991 89.6951C60.3163 90.3308 60.2162 90.9487 60.2162 91.5447C60.2162 93.2692 60.9196 94.1318 62.3238 94.1318C63.8055 94.1318 65.6544 92.8441 67.8706 90.2687C68.2551 89.8319 68.6341 89.3687 69.0069 88.8768L69.5007 88.2388C69.314 88.1074 69.2093 88.025 69.1882 87.9932C68.6826 88.5931 68.2879 89.0571 68.0027 89.3843C65.5888 92.1571 63.718 93.5428 62.3895 93.5428C61.5775 93.5428 61.172 93.1114 61.172 92.2496C61.172 91.6271 61.3415 90.9502 61.6815 90.2189C62.0769 89.3687 62.3184 88.8721 62.4067 88.7291C62.8779 88.4999 63.2624 88.3095 63.5593 88.1572C64.5127 87.6652 65.4239 86.9565 66.2913 86.0293C67.2783 84.9693 67.7722 84.0313 67.7722 83.2138C67.7722 82.5143 67.4705 82.1654 66.8672 82.1654C66.1202 82.1654 65.1277 82.8477 63.8868 84.2116C62.4754 85.7744 61.4838 87.2456 60.8867 88.6328C59.6661 89.9376 58.6963 90.5958 57.9789 90.5958C57.0889 90.5958 56.645 90.0992 56.645 89.1061C56.645 88.9203 56.831 88.4245 57.2053 87.617C57.5773 86.8096 57.764 86.2415 57.764 85.9135C57.764 85.598 57.6163 85.4395 57.3194 85.4395C56.9248 85.4395 56.5731 85.8047 56.266 86.536C56.0362 87.5945 55.9206 88.3693 55.9206 88.8605C55.701 89.4169 55.4705 89.9135 55.2298 90.3503C54.0115 92.5542 52.9964 93.6562 52.1844 93.6562C51.6687 93.6562 51.4108 93.3407 51.4108 92.7081C51.4108 91.8781 51.7836 90.5904 52.5298 88.8442C52.7822 88.2434 52.9526 87.8782 53.0401 87.7476C54.0052 86.7435 54.6585 86.0721 54.9992 85.734C55.844 84.8395 56.4145 84.2271 56.7106 83.9007C58.2142 82.2858 59.1191 81.2763 59.427 80.8722C60.1842 79.879 60.8313 78.9029 61.3689 77.9424C62.3676 76.1736 62.8677 74.8152 62.8677 73.8655C62.8677 73.1132 62.5598 72.7363 61.9456 72.7363C60.8586 72.7363 59.3277 74.2751 57.353 77.3533C56.6395 78.4763 56.1511 79.2573 55.8878 79.6933C55.0758 80.9818 54.099 82.728 52.9581 84.932C52.0782 86.6246 51.4632 88.0942 51.0982 89.3532C49.937 92.3887 48.4381 94.5841 47.1331 95.9993L47.1308 95.9978C47.1159 96.0164 47.0971 96.0343 47.0823 96.0522C46.665 96.4998 46.268 96.8736 45.9109 97.1642C45.553 97.4316 45.1544 97.6873 44.7043 97.9282C44.6926 97.9328 44.6785 97.9406 44.6676 97.9445L44.6692 97.9492C44.6606 97.9538 44.6535 97.9577 44.6449 97.9624C43.515 98.5724 42.5053 98.8794 41.616 98.8794C40.6509 98.8794 39.8882 98.5685 39.3287 97.9461C38.7684 97.3236 38.4886 96.527 38.4886 95.5556C38.4886 95.2828 38.5214 95.01 38.5879 94.7372C39.2685 94.8126 39.7616 94.8515 40.0687 94.8515C41.7371 94.8515 43.454 94.2298 45.2217 92.9855C46.1977 92.2978 47.0815 91.3706 47.8716 90.2034C48.7491 88.904 49.1883 87.7258 49.1883 86.6666C49.1883 85.9788 48.9851 85.4224 48.5796 84.9973C48.1732 84.5722 47.6246 84.3585 46.933 84.3585C45.9453 84.3585 44.8317 84.8069 43.5915 85.7014C41.8692 86.9448 40.486 88.5714 39.4436 90.5795C38.8731 91.6815 38.4777 92.7353 38.2589 93.7386C38.226 93.8917 38.1979 94.0013 38.176 94.0666C36.5522 93.3135 35.7402 92.0095 35.7402 90.1536C35.7402 88.517 36.4811 86.2143 37.9619 83.2456C38.3245 82.526 38.6863 81.9206 39.0489 81.4287C40.2446 82.0403 41.5066 82.3457 42.8343 82.3457C45.8851 82.3457 48.5733 81.4232 50.9005 79.5791C52.9299 77.975 53.9451 76.4472 53.9451 74.9955C53.9451 74.1111 53.5723 73.4186 52.826 72.9166C52.179 72.4799 51.3881 72.2623 50.4559 72.2623C49.5775 72.2623 48.3264 72.5949 46.7025 73.2601C46.0336 72.769 45.5725 72.4581 45.3201 72.3275C44.5738 71.9452 43.7674 71.754 42.8999 71.754C41.2104 71.754 39.7452 72.2895 38.505 73.358C37.2102 74.4717 36.5631 75.8519 36.5631 77.5002C36.5631 78.6892 37.0242 79.7757 37.9455 80.758C37.2875 81.7722 36.7382 82.6068 36.2998 83.2619C35.312 85.2266 34.8181 87.0707 34.8181 88.7944C34.8181 89.1573 34.8447 89.5071 34.883 89.8529C34.6907 89.7728 34.4344 89.727 34.089 89.727C33.3318 89.727 32.4925 89.9834 31.5704 90.4956C31.2742 90.6596 30.5936 91.1181 29.5292 91.8703C28.6399 91.1834 27.96 90.7528 27.488 90.5772C26.0283 90.0425 24.6185 89.7752 23.258 89.7752C18.9889 89.7752 15.8834 91.2432 13.9407 94.1785C13.2718 95.1942 12.849 96.2791 12.674 97.4355C12.6185 97.7961 12.6075 98.4574 12.6404 99.4164C11.6206 100.083 11.0767 100.443 11.011 100.497C8.57523 102.67 7.35693 105.272 7.35693 108.306C7.35693 109.921 7.8344 111.291 8.78934 112.415C9.76304 113.574 11.011 114.167 12.5286 114.208L12.5278 114.214C12.5528 114.216 13.0366 114.258 13.8415 114.258C16.9829 114.258 25.0061 113.605 29.7582 107.523C29.512 108.301 29.3815 109.065 29.3815 109.811C29.3815 111.492 29.9192 112.333 30.9944 112.333C31.5977 112.333 32.4972 111.613 33.6936 110.172C34.0343 109.757 34.3414 109.365 34.6157 108.994C34.5829 109.386 34.5829 109.784 34.6157 110.188C34.7142 111.422 35.1807 112.039 36.0145 112.039C36.9265 112.039 38.516 110.619 40.7791 107.792C40.7119 107.961 40.6392 108.132 40.5829 108.298C40.3907 108.86 40.2946 109.353 40.2946 109.779C40.2946 110.641 40.454 111.288 40.772 111.719C41.0901 112.151 41.5347 112.365 42.1052 112.365C42.1708 112.365 42.2998 112.343 42.492 112.3C42.6843 112.257 42.9062 112.186 43.1586 112.087C43.411 111.989 43.6744 111.864 43.9487 111.711C44.0479 111.656 44.1464 111.601 44.2448 111.547C44.1237 111.776 44.0034 112.001 43.883 112.218C43.3126 113.332 42.7312 114.439 42.138 115.541C41.5894 116.578 41.0432 117.5 40.5001 118.308C39.957 119.115 39.4334 119.798 38.9278 120.354C38.4238 120.911 37.9518 121.336 37.5126 121.631C37.0742 121.926 36.6897 122.073 36.3607 122.073C36.2732 122.073 36.1521 122.048 35.9981 121.999C35.8449 121.95 35.7238 121.926 35.6363 121.926C35.4714 121.926 35.3894 122.008 35.3894 122.171C35.3894 122.4 35.5707 122.515 35.9325 122.515C38.4128 122.515 41.2222 119.612 44.3605 113.806C44.6129 113.347 44.8372 112.952 45.0349 112.62C45.2326 112.287 45.403 112.011 45.5452 111.792C46.0938 112.339 46.665 112.611 47.2573 112.611C48.0365 112.611 48.9797 112.234 50.0886 111.482C50.7794 111.722 51.235 111.842 51.4546 111.842C53.0683 111.842 54.7578 110.669 56.5246 108.322C56.5497 108.29 56.5708 108.262 56.5958 108.229C56.477 108.765 56.4098 109.292 56.4098 109.811C56.4098 111.492 56.9474 112.333 58.0235 112.333C58.626 112.333 59.5254 111.613 60.7219 110.172C61.0618 109.757 61.3697 109.365 61.6432 108.994C61.6112 109.386 61.6112 109.784 61.6432 110.188C61.7424 111.422 62.209 112.039 63.0428 112.039C63.9649 112.039 65.5778 110.592 67.8831 107.701C68.0574 107.479 68.2067 107.281 68.3434 107.093C68.3536 107.098 68.3661 107.105 68.3762 107.111C69.7805 105.386 70.9871 104.072 71.9975 103.166C73.0064 102.26 73.8464 101.829 74.5161 101.872C74.8998 101.895 75.1522 102.014 75.2734 102.232C75.3937 102.451 75.4547 102.789 75.4547 103.248C75.4547 103.695 75.2624 104.344 74.8779 105.195C74.7904 105.382 74.699 105.57 74.606 105.76C74.513 105.951 74.4169 106.139 74.3184 106.325C73.9785 106.729 73.6378 106.893 73.2978 106.816C73.1001 106.784 72.9376 106.732 72.8126 106.661C72.686 106.59 72.5656 106.511 72.45 106.423C72.3351 106.337 72.2085 106.251 72.0717 106.17C71.9342 106.087 71.756 106.03 71.5364 105.998C71.3934 105.976 71.2481 105.992 71.1004 106.047C70.9519 106.101 70.812 106.176 70.6807 106.268C70.5495 106.361 70.4229 106.464 70.3017 106.579C70.1814 106.694 70.0821 106.799 70.0063 106.898L70.0712 106.98C70.2689 106.871 70.4174 106.805 70.5159 106.784C70.6151 106.761 70.719 106.761 70.8284 106.784C70.9933 106.805 71.1356 106.854 71.2567 106.931C71.377 107.008 71.4927 107.089 71.6021 107.177C71.7123 107.264 71.8295 107.345 71.9569 107.422C72.0827 107.499 72.239 107.553 72.4249 107.586C72.5898 107.607 72.8172 107.572 73.1087 107.478C73.3986 107.386 73.6542 107.264 73.8738 107.111C73.6323 107.526 73.3689 107.949 73.0845 108.38C72.7985 108.811 72.4968 109.26 72.1788 109.73C71.9264 110.09 71.6576 110.421 71.3723 110.721C71.0863 111.021 70.8042 111.266 70.5244 111.457C70.2439 111.649 69.9813 111.771 69.7344 111.826C69.4867 111.88 69.2765 111.842 69.1006 111.711C69.0233 111.656 68.9467 111.572 68.8701 111.457C68.7927 111.342 68.7302 111.206 68.681 111.047C68.631 110.889 68.6036 110.718 68.5989 110.533C68.5927 110.347 68.6232 110.15 68.6888 109.943C69.0514 110.15 69.2812 110.222 69.3804 110.156C69.5781 110.035 69.6899 109.845 69.7172 109.582C69.7453 109.32 69.6984 109.086 69.5781 108.879C69.3577 108.518 69.0616 108.443 68.6888 108.65C68.5239 108.737 68.3895 108.891 68.2856 109.107C68.1816 109.326 68.1105 109.572 68.0722 109.845C68.0332 110.118 68.0308 110.399 68.0629 110.687C68.0965 110.977 68.173 111.245 68.2934 111.489C68.4137 111.735 68.5755 111.938 68.7795 112.095C68.9826 112.254 69.2374 112.333 69.5453 112.333C69.8086 112.333 70.1126 112.257 70.4588 112.104C70.8042 111.951 71.1629 111.744 71.5364 111.482C71.9092 111.22 72.2851 110.911 72.6649 110.557C73.0431 110.202 73.408 109.822 73.7589 109.418C74.22 109.877 74.6724 110.101 75.1171 110.09C75.5617 110.08 75.9837 109.937 76.3846 109.665C76.5628 109.543 76.7323 109.403 76.8972 109.253C76.8855 109.406 76.8699 109.557 76.8699 109.714C76.8699 110.172 76.9191 110.568 77.0176 110.9C77.1168 111.234 77.2481 111.509 77.413 111.727C77.5779 111.946 77.7639 112.106 77.9733 112.21C78.1804 112.314 78.3953 112.365 78.6141 112.365C78.9329 112.365 79.2846 112.207 79.6683 111.891C80.052 111.574 80.4583 111.16 80.8866 110.647C81.314 110.133 81.7563 109.55 82.2119 108.895C82.6667 108.241 83.1254 107.572 83.5849 106.89C84.046 106.208 84.4961 105.545 84.9361 104.901C85.1119 104.65 85.276 104.41 85.4292 104.181C83.871 107.073 83.0926 109.086 83.0926 110.222C83.0926 110.516 83.1301 110.794 83.2067 111.056C83.2841 111.318 83.3935 111.547 83.5365 111.744C83.6787 111.94 83.8491 112.095 84.046 112.21C84.2445 112.325 84.4633 112.381 84.7056 112.381C85.412 112.381 86.399 111.665 87.6649 110.233C87.6891 110.476 87.7243 110.703 87.7837 110.9C87.8822 111.234 88.0135 111.509 88.1776 111.727C88.3425 111.946 88.5292 112.106 88.7379 112.21C88.9465 112.314 89.1606 112.365 89.3794 112.365C89.753 112.365 90.164 112.216 90.6149 111.915C91.0643 111.615 91.5285 111.217 92.0059 110.721C92.4826 110.224 92.9656 109.651 93.454 109.001C93.9424 108.352 94.4058 107.684 94.845 106.997C94.6582 107.4 94.5011 107.758 94.3761 108.068C94.2495 108.38 94.1479 108.664 94.0705 108.919C93.9947 109.176 93.9392 109.408 93.9064 109.616C93.8736 109.822 93.8572 110.024 93.8572 110.222C93.8572 110.516 93.8955 110.794 93.9721 111.056C94.0494 111.318 94.1596 111.547 94.3011 111.744C94.4441 111.94 94.6144 112.095 94.8121 112.21C95.0098 112.325 95.2294 112.381 95.4701 112.381C96.6009 112.381 98.4436 110.554 101.002 106.898L101.265 106.522L100.936 106.457Z" fill="white"/>
<path d="M46.1431 78.1215C46.1431 78.2529 46.1595 78.3244 46.1923 78.3345C46.215 78.3345 46.2462 78.3026 46.2829 78.2552C46.197 78.2389 46.1431 78.2008 46.1431 78.1215Z" fill="white"/>
<path d="M66.2544 93.804C66.474 93.9019 66.6608 93.9509 66.8147 93.9509C67.1546 93.9509 67.3633 93.9019 67.4406 93.804C68.8996 91.1516 69.8929 89.3346 70.4196 88.3523C71.9551 85.5158 73.3219 84.0967 74.5175 84.0967C75.0989 84.0967 75.3904 84.3974 75.3904 84.9966C75.3904 85.4334 74.9895 86.46 74.1885 88.0749C73.3 89.8747 72.3943 91.6435 71.473 93.3781C71.5277 93.4325 71.7363 93.4605 72.0989 93.4605C72.3287 93.4605 72.5428 93.4434 72.7405 93.4107C72.9484 93.0618 73.5133 91.9925 74.4355 90.2027C75.2365 88.6422 75.9343 87.3871 76.5266 86.4374C77.5246 84.8326 78.5076 84.0314 79.4727 84.0314C80.0323 84.0314 80.312 84.2987 80.312 84.8326C80.312 85.215 79.8103 86.3286 78.8062 88.1728C77.802 90.017 77.3003 91.3591 77.3003 92.2C77.3003 92.7346 77.4417 93.1978 77.7277 93.591C78.0466 94.0387 78.4631 94.2617 78.9789 94.2617C80.1198 94.2617 81.5303 92.9849 83.2089 90.432L84.7398 88.1067C84.5757 87.9979 84.4545 87.9319 84.3772 87.9109C83.6754 88.9585 83.0557 89.8538 82.5181 90.5952C80.9919 92.7129 79.808 93.7713 78.9624 93.7713C78.4139 93.7713 78.1396 93.4224 78.1396 92.723C78.1396 92.2544 78.642 91.1104 79.6462 89.2934C80.6496 87.4765 81.1513 86.1763 81.1513 85.3899C81.1513 84.1892 80.6246 83.5892 79.5712 83.5892C78.66 83.5892 77.4589 84.4728 75.9663 86.2416C76.021 85.9471 76.0484 85.5974 76.0484 85.1932C76.0484 84.8008 75.907 84.4456 75.6209 84.1293C75.3357 83.813 75.0005 83.6545 74.6168 83.6545C73.6399 83.6545 72.4162 84.5878 70.9463 86.4538L71.2753 85.2593C71.3964 84.8218 71.4558 84.4518 71.4558 84.1456C71.4558 83.7198 71.3245 83.5076 71.0611 83.5076C70.7642 83.5076 70.6165 83.6491 70.6165 83.9327C70.6165 83.9871 70.6548 84.0749 70.7321 84.1954C70.8087 84.3151 70.847 84.4138 70.847 84.4899C70.847 84.5987 70.4407 85.4777 69.6287 87.1244C68.2901 89.8421 67.1656 92.0686 66.2544 93.804Z" fill="white"/>
<path d="M46.3763 120.162H45.3737C45.3737 120.162 45.6089 120.043 45.6089 119.891C45.6089 119.575 45.4651 119.015 45.3002 118.294C45.1173 117.508 44.9642 116.979 44.8806 116.696L43.9772 119.887C43.9725 119.901 43.9725 119.918 43.9725 119.933C43.9725 120.09 44.1999 120.162 44.1999 120.162H43.4263C43.4263 120.162 43.6959 120.014 43.7482 119.862C43.8592 119.56 44.053 119.012 44.2671 118.28C44.5141 117.428 44.6961 116.851 44.6961 116.634C44.6961 116.518 44.5078 116.441 44.5078 116.441H45.6143C45.6143 116.441 45.4205 116.487 45.4205 116.651C45.4205 116.664 45.4268 116.674 45.4268 116.685C45.4682 116.967 45.5612 117.49 45.7456 118.294C45.9121 119.031 46.0692 119.59 46.1582 119.891C46.2145 120.081 46.3763 120.162 46.3763 120.162Z" fill="white"/>
<path d="M48.6079 118.217C48.4321 117.46 48.286 116.952 48.2031 116.682L47.7718 118.217H48.6079ZM47.0739 119.862C47.4084 118.959 47.7225 117.852 48.014 116.6C48.0156 116.597 48.0156 116.595 48.0156 116.591C48.0156 116.518 47.8429 116.44 47.8429 116.44H48.9455C48.9455 116.44 48.7548 116.493 48.7548 116.658C48.7548 116.668 48.7587 116.677 48.7587 116.691C48.8017 116.971 48.8885 117.496 49.0737 118.298C49.2385 119.035 49.4003 119.594 49.4917 119.895C49.5464 120.085 49.7035 120.156 49.7035 120.156H48.7025C48.7025 120.156 48.9346 120.047 48.9346 119.895C48.9346 119.594 48.797 119.06 48.6446 118.374H47.7225L47.3013 119.881C47.2966 119.895 47.2966 119.915 47.2966 119.928C47.2966 120.085 47.5303 120.156 47.5303 120.156H46.7598C46.7598 120.156 47.0051 120.037 47.0739 119.862Z" fill="white"/>
<path d="M51.5202 118.355C51.3108 118.355 51.0349 118.376 50.8122 118.39C50.8122 119.197 50.8427 119.713 50.8638 119.966C51.117 119.987 51.4131 120.005 51.6241 120.005C52.0485 120.005 52.3978 119.598 52.3978 119.179C52.3978 118.756 52.0696 118.38 51.6468 118.358C51.6069 118.358 51.5663 118.355 51.5202 118.355ZM50.1362 116.441H51.714C52.2087 116.432 52.5502 116.397 52.5502 116.397C52.5502 116.397 52.4923 116.634 52.4697 116.824C52.4361 117.061 52.4361 117.475 52.4361 117.475C52.4361 117.475 52.2423 116.602 51.6804 116.602H50.8747C50.8544 116.851 50.8153 117.419 50.8122 118.195L51.8039 118.2C52.3509 118.2 52.7932 118.635 52.7932 119.179C52.7932 119.722 52.3509 120.159 51.8039 120.159H50.1362C50.1401 120.156 50.2871 120.105 50.3019 119.994C50.3355 119.785 50.3644 119.188 50.3644 118.308C50.3644 117.468 50.3207 116.856 50.3019 116.597C50.2871 116.496 50.1362 116.441 50.1362 116.441Z" fill="white"/>
<path d="M53.6581 118.081C53.6581 118.251 53.6745 118.427 53.7097 118.592C53.7722 118.88 53.9285 119.202 54.0426 119.381C54.281 119.751 54.7491 120.014 55.2453 120.014C55.3398 120.014 55.436 120.005 55.5305 119.987C56.1158 119.859 56.5425 119.363 56.623 118.834C56.6417 118.728 56.6527 118.583 56.6527 118.431C56.6527 118.281 56.6371 118.114 56.6081 117.973C56.5425 117.66 56.4143 117.345 56.2393 117.118C55.9736 116.775 55.5336 116.535 55.0687 116.535C54.9741 116.535 54.878 116.543 54.7842 116.566C54.2184 116.686 53.7972 117.169 53.6949 117.665C53.6722 117.788 53.6581 117.931 53.6581 118.081ZM53.1729 118.308C53.1729 117.34 53.9285 116.516 54.7217 116.348C54.8655 116.313 55.003 116.298 55.146 116.298C56.0572 116.298 56.884 116.928 57.0856 117.849C57.1176 117.992 57.1333 118.134 57.1333 118.271C57.1333 119.177 56.5011 119.995 55.5735 120.195C55.4086 120.231 55.2453 120.246 55.0835 120.246C54.1997 120.246 53.4182 119.711 53.2111 118.69C53.1838 118.562 53.1729 118.431 53.1729 118.308Z" fill="white"/>
<path d="M58.5266 116.592C58.4368 116.592 58.336 116.592 58.2492 116.595C58.2258 116.852 58.189 117.419 58.1859 118.182H58.6134C59.0229 118.182 59.3597 117.79 59.3597 117.386C59.3597 116.98 59.0393 116.614 58.6368 116.592H58.5266ZM58.1859 118.336V118.526C58.1859 119.31 58.2141 119.807 58.2492 120.008C58.2547 120.101 58.4094 120.157 58.4094 120.157H57.5146C57.5146 120.157 57.6655 120.076 57.6811 119.995C57.7006 119.75 57.7374 119.198 57.7374 118.298C57.7374 117.411 57.7053 116.832 57.6717 116.555C57.6616 116.493 57.5146 116.44 57.5146 116.44H57.8624L58.783 116.432C59.3112 116.432 59.7418 116.864 59.7418 117.386C59.7418 117.906 59.3159 118.333 58.7908 118.333L58.1859 118.336Z" fill="white"/>
<path d="M61.4937 118.217C61.3178 117.46 61.1701 116.952 61.0889 116.682L60.6575 118.217H61.4937ZM59.9597 119.862C60.2957 118.959 60.6098 117.852 60.8982 116.6C60.9013 116.597 60.9013 116.595 60.9013 116.591C60.9013 116.518 60.7302 116.44 60.7302 116.44H61.8328C61.8328 116.44 61.6429 116.493 61.6429 116.658C61.6429 116.668 61.6476 116.677 61.6476 116.691C61.689 116.971 61.7742 117.496 61.9594 118.298C62.1243 119.035 62.2892 119.594 62.379 119.895C62.4353 120.085 62.5939 120.156 62.5939 120.156H61.5882C61.5882 120.156 61.8187 120.047 61.8187 119.895C61.8187 119.594 61.6843 119.06 61.5319 118.374H60.6098L60.1871 119.881C60.1792 119.895 60.1792 119.915 60.1792 119.928C60.1792 120.085 60.4145 120.156 60.4145 120.156H59.6455C59.6455 120.156 59.8924 120.037 59.9597 119.862Z" fill="white"/>
<path d="M65.9401 116.389C65.9401 116.389 65.8776 116.622 65.8534 116.81C65.8214 117.046 65.8214 117.469 65.8214 117.469C65.8214 117.469 65.6275 116.587 65.0657 116.587H64.5663C64.5484 116.824 64.5101 117.357 64.5101 118.081V118.3C64.5148 119.067 64.5343 119.741 64.557 119.898C64.582 120.052 64.7844 120.157 64.7844 120.157H63.7817C63.7817 120.157 63.9865 120.096 64.0092 119.898C64.0396 119.631 64.0584 119.183 64.0584 118.532V118.3C64.0506 117.452 64.0138 116.846 63.9959 116.587H63.4785C62.9425 116.622 62.7596 117.469 62.7596 117.469C62.7596 117.469 62.7596 117.046 62.7276 116.81C62.7041 116.622 62.6416 116.389 62.6416 116.389C62.6416 116.389 62.9886 116.425 63.484 116.425H65.0993C65.5924 116.425 65.9401 116.389 65.9401 116.389Z" fill="white"/>
<path d="M66.4725 118.081C66.4725 118.251 66.492 118.427 66.5256 118.592C66.5881 118.88 66.7444 119.202 66.8585 119.381C67.0953 119.751 67.565 120.014 68.0596 120.014C68.1557 120.014 68.2519 120.005 68.3449 119.987C68.931 119.859 69.3584 119.363 69.4397 118.834C69.4577 118.728 69.467 118.583 69.467 118.431C69.467 118.281 69.4522 118.114 69.4241 117.973C69.3584 117.66 69.2287 117.345 69.0552 117.118C68.7895 116.775 68.3511 116.535 67.8861 116.535C67.79 116.535 67.6947 116.543 67.6001 116.566C67.0344 116.686 66.6132 117.169 66.5123 117.665C66.4866 117.788 66.4725 117.931 66.4725 118.081ZM65.9888 118.308C65.9888 117.34 66.7444 116.516 67.5376 116.348C67.6814 116.313 67.8189 116.298 67.9604 116.298C68.8731 116.298 69.7007 116.928 69.9007 117.849C69.9328 117.992 69.9492 118.134 69.9492 118.271C69.9492 119.177 69.3178 119.995 68.3894 120.195C68.2245 120.231 68.0596 120.246 67.8979 120.246C67.0156 120.246 66.2341 119.711 66.0255 118.69C65.9981 118.562 65.9888 118.431 65.9888 118.308Z" fill="white"/>
<path d="M71.343 116.592C71.2532 116.592 71.1524 116.592 71.0609 116.595C71.0422 116.852 71.0039 117.419 71 118.182H71.4298C71.8361 118.182 72.1745 117.79 72.1745 117.386C72.1745 116.98 71.8541 116.614 71.4517 116.592H71.343ZM71 118.336V118.526C71 119.31 71.0305 119.807 71.0609 120.008C71.0711 120.101 71.2243 120.157 71.2243 120.157H70.3311C70.3311 120.157 70.4834 120.076 70.4959 119.995C70.5155 119.75 70.5553 119.198 70.5553 118.298C70.5553 117.411 70.5202 116.832 70.4866 116.555C70.478 116.493 70.3311 116.44 70.3311 116.44H70.6772L71.5994 116.432C72.1261 116.432 72.5551 116.864 72.5551 117.386C72.5551 117.906 72.1323 118.333 71.604 118.333L71 118.336Z" fill="white"/>
<path d="M73.2585 118.289C73.2585 117.546 73.2327 116.991 73.2069 116.691C73.1928 116.493 72.9897 116.44 72.9897 116.44H73.9758C73.9758 116.44 73.7727 116.537 73.7633 116.691H73.7594C73.7344 116.994 73.707 117.557 73.707 118.289C73.707 118.959 73.7289 119.438 73.7484 119.74C73.9438 119.414 74.2228 118.903 74.5424 118.252C75.0918 117.122 75.3575 116.501 75.3575 116.446C75.3575 116.441 75.3575 116.441 75.3559 116.44H76.1491C76.1491 116.44 75.96 116.545 75.9311 116.7C75.9006 116.851 75.8795 117.386 75.8795 117.999V118.289C75.8881 119.073 75.9248 119.883 75.9248 119.883C75.9404 120.039 76.1491 120.156 76.1491 120.156H75.1543C75.1543 120.156 75.3645 120.079 75.3786 119.883C75.4028 119.598 75.4317 119.078 75.4317 118.289C75.4317 117.659 75.409 117.166 75.3879 116.843L73.782 120.156V120.159L72.9834 120.156C72.9834 120.156 73.196 120.079 73.2124 119.883C73.2358 119.598 73.2585 119.078 73.2585 118.289Z" fill="white"/>
<path d="M78.408 118.185H78.9988V117.832C78.9988 117.364 78.9941 116.941 78.9636 116.724C78.959 116.682 78.941 116.644 78.9175 116.612C78.7988 116.602 78.6581 116.592 78.5315 116.592C78.4799 116.592 78.4307 116.592 78.3854 116.597C77.9806 116.616 77.6617 116.979 77.6617 117.386C77.6617 117.793 77.9993 118.185 78.408 118.185ZM79.7209 120.158H78.7167C78.7167 120.158 78.9363 120.007 78.9496 119.846C78.9683 119.556 78.9988 119.055 78.9988 118.34L78.6753 118.335L77.4101 119.904C77.3898 119.93 77.3867 119.957 77.3867 119.975C77.3867 120.09 77.5945 120.158 77.5945 120.158L76.4849 120.15C76.4849 120.15 76.7974 120.037 77.0163 119.735L77.0264 119.725L78.1501 118.328C77.6617 118.291 77.2819 117.881 77.2819 117.386C77.2819 116.861 77.7086 116.436 78.2369 116.436L79.1684 116.441H79.7326C79.7326 116.441 79.5146 116.525 79.495 116.715C79.4732 117.018 79.4458 117.571 79.4458 118.3C79.4458 119.07 79.4685 119.583 79.4919 119.871C79.5099 120.065 79.7209 120.158 79.7209 120.158Z" fill="white"/>
<path d="M82.3218 117.926L83.576 116.679C83.6112 116.634 83.6268 116.597 83.6268 116.567C83.6268 116.484 83.5307 116.442 83.5307 116.442H84.3231C84.3231 116.442 84.0957 116.513 83.8253 116.762L82.4546 118.129C82.4546 118.129 83.7136 119.392 84.1394 119.807C84.3989 120.061 84.6857 120.156 84.6857 120.156H83.5737C83.5737 120.156 83.755 120.096 83.755 119.99C83.755 119.963 83.7393 119.928 83.705 119.895L82.3218 118.518C82.3265 119.139 82.3523 119.575 82.371 119.839C82.3843 119.999 82.607 120.156 82.607 120.156H81.5966C81.5966 120.156 81.8107 120.061 81.8302 119.868C81.8529 119.578 81.8779 119.064 81.8779 118.293C81.8779 117.566 81.8459 117.018 81.824 116.715C81.806 116.528 81.5903 116.442 81.5903 116.442H82.5906C82.5906 116.442 82.3749 116.564 82.3569 116.724C82.3265 116.961 82.3218 117.419 82.3218 117.926Z" fill="white"/>
<path d="M86.1267 116.592C86.0369 116.592 85.9361 116.592 85.8462 116.595C85.8259 116.852 85.7891 117.419 85.7845 118.182H86.2135C86.6214 118.182 86.9574 117.79 86.9574 117.386C86.9574 116.98 86.6409 116.614 86.2369 116.592H86.1267ZM85.7845 118.336V118.526C85.7845 119.31 85.8142 119.807 85.8462 120.008C85.8548 120.101 86.008 120.157 86.008 120.157H85.1147C85.1147 120.157 85.2671 120.076 85.2812 119.995C85.3007 119.75 85.339 119.198 85.339 118.298C85.339 117.411 85.3039 116.832 85.2718 116.555C85.2617 116.493 85.1147 116.44 85.1147 116.44H85.4609L86.3831 116.432C86.9113 116.432 87.3388 116.864 87.3388 117.386C87.3388 117.906 86.916 118.333 86.3893 118.333L85.7845 118.336Z" fill="white"/>
<path d="M89.0938 118.217C88.9179 117.46 88.7718 116.952 88.689 116.682L88.256 118.217H89.0938ZM87.5613 119.862C87.8958 118.959 88.2099 117.852 88.4998 116.6C88.5014 116.597 88.5014 116.595 88.5014 116.591C88.5014 116.518 88.3287 116.44 88.3287 116.44H89.4313C89.4313 116.44 89.2414 116.493 89.2414 116.658C89.2414 116.668 89.2461 116.677 89.2461 116.691C89.2891 116.971 89.3743 117.496 89.5595 118.298C89.7244 119.035 89.8877 119.594 89.9776 119.895C90.0338 120.085 90.1925 120.156 90.1925 120.156H89.1883C89.1883 120.156 89.4204 120.047 89.4204 119.895C89.4204 119.594 89.2844 119.06 89.132 118.374H88.2099L87.7856 119.881C87.7809 119.895 87.7809 119.915 87.7809 119.928C87.7809 120.085 88.0146 120.156 88.0146 120.156H87.2456C87.2456 120.156 87.4925 120.037 87.5613 119.862Z" fill="white"/>
<path d="M90.7406 118.118C90.7406 118.274 90.7531 118.426 90.7882 118.587C90.8476 118.876 91 119.198 91.1188 119.381C91.3759 119.773 91.8182 120.014 92.2988 120.014C92.3996 120.014 92.5035 120.005 92.609 119.98C93.0388 119.886 93.3827 119.609 93.5671 119.245L93.4647 119.859C93.4405 119.85 93.392 119.862 93.3538 119.891C93.149 120.032 92.9122 120.136 92.6497 120.195C92.5098 120.222 92.366 120.241 92.2269 120.241C91.3142 120.241 90.4921 119.609 90.2873 118.685C90.26 118.545 90.2412 118.402 90.2412 118.266C90.2412 117.359 90.8797 116.54 91.8057 116.338C91.9464 116.303 92.094 116.29 92.2363 116.29C92.4988 116.29 92.7552 116.342 92.9888 116.442C93.0084 116.45 93.0959 116.432 93.1107 116.392L93.2819 117.066C93.0177 116.73 92.6028 116.523 92.1613 116.523C92.062 116.523 91.962 116.531 91.8612 116.553C91.2962 116.677 90.8445 117.123 90.771 117.662C90.7531 117.817 90.7406 117.968 90.7406 118.118Z" fill="white"/>
<path d="M94.4339 118.081C94.4339 118.251 94.455 118.427 94.4871 118.592C94.5496 118.88 94.7059 119.202 94.8184 119.381C95.0567 119.751 95.5264 120.014 96.0226 120.014C96.1172 120.014 96.2117 120.005 96.3063 119.987C96.8916 119.859 97.3183 119.363 97.3995 118.834C97.4175 118.728 97.43 118.583 97.43 118.431C97.43 118.281 97.4136 118.114 97.3855 117.973C97.3183 117.66 97.1917 117.345 97.0151 117.118C96.7478 116.775 96.311 116.535 95.8444 116.535C95.7515 116.535 95.6553 116.543 95.5616 116.566C94.9973 116.686 94.573 117.169 94.4738 117.665C94.4495 117.788 94.4339 117.931 94.4339 118.081ZM93.9502 118.308C93.9502 117.34 94.7059 116.516 95.499 116.348C95.6413 116.313 95.7804 116.298 95.9202 116.298C96.8346 116.298 97.6621 116.928 97.8606 117.849C97.8958 117.992 97.9091 118.134 97.9091 118.271C97.9091 119.177 97.2792 119.995 96.3508 120.195C96.1828 120.231 96.0226 120.246 95.8609 120.246C94.9755 120.246 94.1956 119.711 93.9885 118.69C93.958 118.562 93.9502 118.431 93.9502 118.308Z" fill="white"/>
<path d="M101.209 116.389C101.209 116.389 101.148 116.622 101.124 116.81C101.092 117.046 101.092 117.469 101.092 117.469C101.092 117.469 100.895 116.587 100.335 116.587H99.8354C99.8174 116.824 99.7791 117.357 99.7791 118.081V118.3C99.7854 119.067 99.8033 119.741 99.826 119.898C99.851 120.052 100.053 120.157 100.053 120.157H99.0508C99.0508 120.157 99.2571 120.096 99.2782 119.898C99.3102 119.631 99.329 119.183 99.329 118.532V118.3C99.318 117.452 99.2844 116.846 99.2665 116.587H98.7491C98.2115 116.622 98.0286 117.469 98.0286 117.469C98.0286 117.469 98.0286 117.046 97.9982 116.81C97.9732 116.622 97.9106 116.389 97.9106 116.389C97.9106 116.389 98.2576 116.425 98.7531 116.425H100.367C100.863 116.425 101.209 116.389 101.209 116.389Z" fill="white"/>
<path d="M105.442 120.15H104.438C104.438 120.15 104.656 120.002 104.671 119.84C104.694 119.534 104.718 118.63 104.718 117.849C104.718 117.368 104.71 116.932 104.683 116.719C104.668 116.558 104.451 116.442 104.451 116.442H105.45C105.45 116.442 105.235 116.516 105.217 116.701C105.19 117.004 105.164 117.551 105.164 118.291C105.164 119.059 105.19 119.578 105.211 119.868C105.227 120.061 105.442 120.15 105.442 120.15ZM102.974 118.346C102.766 118.346 102.49 118.364 102.266 118.38C102.266 119.191 102.3 119.708 102.319 119.963C102.571 119.979 102.875 120.002 103.083 120.002C103.506 120.002 103.859 119.592 103.859 119.174C103.859 118.752 103.525 118.369 103.104 118.35C103.065 118.35 103.021 118.346 102.974 118.346ZM101.82 118.3C101.82 117.461 101.795 116.862 101.757 116.597C101.745 116.513 101.597 116.442 101.597 116.442H102.49C102.49 116.442 102.337 116.502 102.328 116.593C102.31 116.846 102.268 117.415 102.266 118.185L103.265 118.19C103.812 118.19 104.253 118.63 104.253 119.174C104.253 119.716 103.812 120.154 103.265 120.154L101.973 120.162H101.592C101.592 120.162 101.754 120.066 101.757 119.986C101.781 119.735 101.82 119.191 101.82 118.3Z" fill="white"/>
</g>
</g>
<defs>
<clipPath id="clip0_4001_390">
<rect width="118" height="136" fill="white"/>
</clipPath>
</defs>
</svg>
